<svg id="Слой_1" data-name="Слой 1" xmlns="http://www.w3.org/2000/svg" viewBox="0 0 347.33 130.56"><defs><style>.cls-1{fill:none}.cls-2{clip-path:url(#clip-path)}.cls-3{fill:#ec1557;fill-rule:evenodd}.cls-4{fill:#383938}</style><clipPath id="clip-path" transform="translate(-119.01 -38.12)"><path class="cls-1" d="M0 0h595.28v841.89H0z"/></clipPath></defs><title>logo-dark</title><g class="cls-2"><path class="cls-3" d="M190.33 38.12a35.48 35.48 0 0 1 1.36 3.88c2.14 9.47 3.54 19.17 6.54 28.36 2.52 7.73-.45 13.22-4.47 18.9A68.09 68.09 0 0 1 156.37 116c-.71.21-1.39.53-2.09.79v.69a12 12 0 0 0 2.53.55 98.51 98.51 0 0 0 44.5-10.24 97.78 97.78 0 0 0 29.31-22.29c1.21-1.34 2.38-1.74 3.9-.52 3.47 2.8 7 5.48 10.44 8.35 2.2 1.87 2.08 2.59-.38 4.06-7.45 4.45-14.94 8.85-22.41 13.27-2.67 1.58-5.29 3.25-8 4.73-2.12 1.15-2 2.38-.86 4.24a43.71 43.71 0 0 1 5.69 33.51c-1.09 4.92-3.33 9.59-5.16 14.33-.67 1.74-2 1.33-3.09.41-2.14-1.79-4.19-3.68-6.29-5.53l-19.92-17.57c-2.46-2.17-2.87-2.17-5.11.08C169 155.33 156.5 159.43 142 157.72c-1.66-.2-3.32-.45-5-.53-2.08-.09-2.49-1.18-1.8-2.85 1.48-3.61 3-7.19 4.57-10.77 3.27-7.6 6.59-15.17 9.83-22.78 1.17-2.73.74-3.67-2-4.78-14-5.67-22.64-16.06-26.75-30.41-.74-2.59-1.19-5.26-1.73-7.9-.36-1.76.37-2.53 2.19-2.36q12.25 1.16 24.51 2.26l11.9 1.07c1.92.18 2.9-.54 3.15-2.61C162.73 60.37 171.13 49 184.47 41c1.57-.94 3.2-1.79 4.81-2.66a4.72 4.72 0 0 1 1-.19" transform="translate(-119.01 -38.12)"/><path class="cls-4" d="M289.93 133.35l-3.62-20.72h-7.06l-2 20.72h-12.92L276.09 70h15l11.76 63.33zM282.42 87h-.81l-1.45 16h5.07zM330.91 133.89l-9.68-23.79-.72 1.18v22.07H308V70h12.48v24.81h.36l9.68-25.06 12.94.63-3 6.06c-1.9 3.89-7.15 14.29-9 17.46l-2.71 4.61 15.56 34.29zM369.81 133.35v-29.67h-.72l-2.17 9.14a128 128 0 0 1-4 14.2l-2.08 6.33h-11.48V70h12.48v29.7h.72l2.17-9.14a127.9 127.9 0 0 1 4-14.2L370.8 70h11.49v63.33zM408.44 133.35h-16.19V70h15.92c10.58 0 16 3.8 16 16.37 0 7.6-3.08 12.21-9.23 13.21v.72c8.23 1 10.13 7.42 10.13 15.2 0 11.67-2.89 17.82-16.65 17.82m-1.34-53.52h-2.35v16.46h2.35c3.53 0 4.25-1.81 4.25-8.23s-.72-8.23-4.25-8.23m.09 26.23h-2.44v17.55h2.44c4.25 0 5.07-1.9 5.07-8.78s-.81-8.78-5.07-8.78M453.4 133.35l-3.62-20.72h-7.06l-2 20.72H427.8L439.56 70h15l11.76 63.33zM445.89 87h-.81l-1.45 16h5.07z" transform="translate(-119.01 -38.12)"/></g></svg>