<svg width="96" height="107" viewBox="0 0 96 107" fill="none" xmlns="http://www.w3.org/2000/svg">
<path d="M95.7694 106.363H14V0H70.2165L95.7694 25.3245V106.363Z" fill="#A75FD9"/>
<path d="M92.2753 28.0582H68V4L92.2753 28.0582Z" fill="#DBA7FF"/>
<rect y="16" width="55" height="28" rx="4" fill="#8950B1"/>
<path d="M17.8418 31.7705H12.7793V37H10.1426V24.2031H18.4746V26.3389H12.7793V29.6436H17.8418V31.7705ZM22.3756 37H19.7389V24.2031H22.3756V37ZM27.0325 34.8818H32.6311V37H24.3958V24.2031H27.0325V34.8818ZM41.4188 31.4541H36.3563V34.8818H42.2978V37H33.7196V24.2031H42.2802V26.3389H36.3563V29.3887H41.4188V31.4541Z" fill="#CC98F1"/>
</svg>
