<svg width="96" height="107" viewBox="0 0 96 107" fill="none" xmlns="http://www.w3.org/2000/svg">
<path d="M95.7694 106.363H14V0H70.2165L95.7694 25.3245V106.363Z" fill="#7883A4"/>
<path d="M92.2753 28.0582H68V4L92.2753 28.0582Z" fill="#9AA6CA"/>
<rect y="16" width="55" height="28" rx="4" fill="#4B536D"/>
<path d="M13.333 3.91406L16.4375 12.6797L19.5254 3.91406H22.7959V16H20.2974V12.6963L20.5464 6.99365L17.2842 16H15.5742L12.3203 7.00195L12.5693 12.6963V16H10.0791V3.91406H13.333ZM30.8058 12.8291C30.8058 12.3587 30.6398 11.999 30.3077 11.75C29.9757 11.4954 29.3781 11.2298 28.5148 10.9531C27.6515 10.6709 26.9681 10.3942 26.4645 10.123C25.0921 9.38151 24.4059 8.38265 24.4059 7.12646C24.4059 6.47347 24.5885 5.89242 24.9537 5.3833C25.3245 4.86865 25.853 4.46745 26.5392 4.17969C27.2309 3.89193 28.0057 3.74805 28.8634 3.74805C29.7267 3.74805 30.4959 3.90576 31.171 4.22119C31.8462 4.53109 32.3691 4.97103 32.7399 5.54102C33.1162 6.111 33.3043 6.75846 33.3043 7.4834H30.8141C30.8141 6.93001 30.6398 6.50114 30.2911 6.19678C29.9425 5.88688 29.4528 5.73193 28.8219 5.73193C28.2132 5.73193 27.74 5.86198 27.4025 6.12207C27.0649 6.37663 26.8961 6.71419 26.8961 7.13477C26.8961 7.52767 27.0926 7.85693 27.4855 8.12256C27.8839 8.38818 28.4677 8.63721 29.2369 8.86963C30.6536 9.29574 31.6857 9.82422 32.3331 10.4551C32.9806 11.0859 33.3043 11.8717 33.3043 12.8125C33.3043 13.8584 32.9087 14.6802 32.1173 15.2778C31.326 15.87 30.2607 16.166 28.9215 16.166C27.9918 16.166 27.1451 15.9972 26.3815 15.6597C25.6178 15.3166 25.034 14.849 24.63 14.2568C24.2316 13.6647 24.0324 12.9785 24.0324 12.1982H26.5309C26.5309 13.5319 27.3278 14.1987 28.9215 14.1987C29.5136 14.1987 29.9757 14.0798 30.3077 13.8418C30.6398 13.5983 30.8058 13.2607 30.8058 12.8291ZM19.6416 34.4727C19.1934 35.0094 18.5597 35.4272 17.7407 35.7261C16.9217 36.0194 16.0142 36.166 15.0181 36.166C13.9722 36.166 13.0535 35.9391 12.2622 35.4854C11.4764 35.026 10.8677 34.362 10.436 33.4932C10.0099 32.6243 9.79134 31.6034 9.78027 30.4302V29.6084C9.78027 28.402 9.98226 27.3589 10.3862 26.479C10.7957 25.5936 11.3823 24.9185 12.146 24.4536C12.9152 23.9832 13.8145 23.748 14.8438 23.748C16.277 23.748 17.3976 24.0911 18.2056 24.7773C19.0135 25.458 19.4922 26.4513 19.6416 27.7573H17.2178C17.1071 27.0656 16.8608 26.5592 16.479 26.2383C16.1027 25.9173 15.5825 25.7568 14.9185 25.7568C14.0718 25.7568 13.4271 26.075 12.9844 26.7114C12.5417 27.3478 12.3175 28.2941 12.312 29.5503V30.3223C12.312 31.5895 12.5527 32.5469 13.0342 33.1943C13.5156 33.8418 14.2212 34.1655 15.1509 34.1655C16.0861 34.1655 16.7529 33.9663 17.1514 33.5679V31.4844H14.8853V29.6499H19.6416V34.4727Z" fill="#9AA6CA"/>
<path fill-rule="evenodd" clip-rule="evenodd" d="M55.0039 83.4609L39.0078 73.4414V88.7344H71V73.4414L55.0039 83.4609ZM39.0078 68.7305L55.0039 78.75L71 68.7305L55.0039 58.7461L39.0078 68.7305ZM75.0078 68.7305V88.7344C75.0078 89.8359 74.6152 90.7793 73.8301 91.5645C73.0449 92.3496 72.1016 92.7422 71 92.7422H39.0078C37.9062 92.7422 36.9629 92.3496 36.1777 91.5645C35.3926 90.7793 35 89.8359 35 88.7344V68.7305C35 68.0039 35.1758 67.3418 35.5273 66.7441C35.8789 66.1465 36.3477 65.6719 36.9336 65.3203L55.0039 54L73.0391 65.3203C73.625 65.6719 74.0996 66.1465 74.4629 66.7441C74.8262 67.3418 75.0078 68.0039 75.0078 68.7305Z" fill="#9AA6CA"/>
</svg>
