<svg width="96" height="107" viewBox="0 0 96 107" fill="none" xmlns="http://www.w3.org/2000/svg">
<path d="M95.7694 106.363H14V0H70.2165L95.7694 25.3245V106.363Z" fill="#A75FD9"/>
<path d="M92.2753 28.0582H68V4L92.2753 28.0582Z" fill="#DBA7FF"/>
<rect y="16" width="55" height="28" rx="4" fill="#8950B1"/>
<path d="M17.4922 12.5137L19.1191 3.91406H21.6011L18.9199 16H16.4131L14.4458 7.91504L12.4785 16H9.97168L7.29053 3.91406H9.77246L11.4077 12.4971L13.3999 3.91406H15.5083L17.4922 12.5137ZM25.8 3.91406L28.9045 12.6797L31.9924 3.91406H35.2629V16H32.7644V12.6963L33.0134 6.99365L29.7512 16H28.0412L24.7873 7.00195L25.0363 12.6963V16H22.5461V3.91406H25.8ZM12.5449 33.0034L15.2842 23.9141H18.0566L13.8481 36H11.25L7.05811 23.9141H9.82227L12.5449 33.0034Z" fill="#CC98F1"/>
</svg>
